<?xml version="1.0" encoding="utf-8"?>
<!-- Generator: Adobe Illustrator 16.0.0, SVG Export Plug-In . SVG Version: 6.00 Build 0)  -->
<!DOCTYPE svg PUBLIC "-//W3C//DTD SVG 1.1//EN" "http://www.w3.org/Graphics/SVG/1.1/DTD/svg11.dtd">
<svg version="1.1" id="Layer_1" xmlns="http://www.w3.org/2000/svg" xmlns:xlink="http://www.w3.org/1999/xlink" x="0px" y="0px"
	 width="1568px" height="1400px" viewBox="0 0 1568 1400" enable-background="new 0 0 1568 1400" xml:space="preserve">
<g>
	<g>
		<polygon fill="#808285" points="1275.4,909.2 1568,1155 1568,830.8 0,830.8 0,1400 357.4,1400 151.8,1227.3 		"/>
		<polygon fill="#717375" points="1568,1155 1275.4,909.2 151.8,1227.3 357.4,1400 1568,1400 		"/>
	</g>
	<rect fill="#FFBDBD" width="1568" height="830.8"/>
	<g>
		<path fill="#58595B" d="M912.5,626.6c-0.7,0-1.3-0.1-2-0.3c-3.1-1.1-4.7-4.5-3.6-7.6c0.6-1.7,15.2-42.4,50.6-57.9
			c3-1.3,6.5,0.1,7.8,3.1c1.3,3-0.1,6.5-3.1,7.8c-30.6,13.4-44,50.5-44.1,50.9C917.2,625.1,914.9,626.6,912.5,626.6z"/>
	</g>
	<path fill="#FFFFFF" d="M1438.3,1173.2l-163-265c-5.8-5.3-19.9-4.5-19.9-4.5h-455h-455c0,0-14.1-0.8-19.9,4.5l-196,265
		c0,0-9.6,14.2,16.3,14.2H784H1422C1447.8,1187.5,1438.3,1173.2,1438.3,1173.2z"/>
	<path fill="#A8A8A8" d="M1315.4,1026.2c-6.6-18.3-25.8-33.3-43.8-34.7c10.5,6.4,19.4,16.4,23.5,27.7c1.8,5,2.4,9.7,1.9,14
		c-1.3,12.1-11,20.5-25.8,20.5c-1.2,0-2.4-0.1-3.7-0.2c7.4,4.4,15.7,7.1,24,7.1c14.8,0,24.5-8.4,25.8-20.5
		C1317.8,1035.9,1317.2,1031.2,1315.4,1026.2z"/>
	<path fill="#BDBDBD" d="M1297,1033.3c0.5-4.3-0.1-9-1.9-14c-4.1-11.3-13-21.4-23.5-27.7c-0.8-0.1-1.6-0.1-2.4-0.1
		c-16.4-0.1-26.6,11.8-25.2,27.7c0.2,2.2,0.6,4.5,1.3,6.8c3.2,11.3,11.7,21.3,22.3,27.7c1.2,0.1,2.4,0.2,3.7,0.2
		C1286.1,1053.8,1295.7,1045.4,1297,1033.3z"/>
	<path fill="#ADADAD" d="M1440.1,1179c0,0-0.3,72.5-103,72.5H728.8H230.9c-102.7,0-103-72.5-103-72.5"/>
	<polygon fill="#58595B" points="1170.2,930.1 768.2,930.1 397.1,930.1 365.7,991.1 365.1,992.3 358.4,1005.3 287.3,1143.4 
		711.2,1143.4 991.7,1143.4 1008.6,1143.4 1280.7,1143.4 	"/>
	<g>
		<g>
			<polygon fill="#119FBD" points="528.5,498.7 518.8,505.4 528.5,505.4 570.3,505.4 570.3,469.6 			"/>
			<polygon fill="#13D8FF" points="528.5,440.5 528.5,498.7 570.3,469.6 			"/>
			<polygon fill="#119FBD" points="896.8,498.7 855.1,469.6 855.1,505.4 896.8,505.4 906.5,505.4 			"/>
			<polygon fill="#13D8FF" points="896.8,498.7 896.8,440.5 855.1,469.6 			"/>
			<polygon fill="#12B4D6" points="570.3,505.4 712.7,505.4 855.1,505.4 855.1,469.6 896.8,440.5 712.7,440.5 528.5,440.5 
				570.3,469.6 			"/>
			<path fill="#13D8FF" d="M906.5,918.7V505.4h-9.7h-41.8H712.7H570.3h-41.8h-9.7v413.3c0,0-13.7,49.8,31.9,49.8h162h162
				C920.2,968.5,906.5,918.7,906.5,918.7z"/>
		</g>
		<path fill="#119FBD" d="M621.1,577.5c0,8.8-7.1,15.9-15.9,15.9s-15.9-7.1-15.9-15.9s7.1-15.9,15.9-15.9S621.1,568.7,621.1,577.5z"
			/>
		<circle fill="#119FBD" cx="820.2" cy="577.5" r="15.9"/>
		<g>
			<path fill="#FFFFFF" d="M724.7,781.2h-23.9c-58.4,0-105.9-47.5-105.9-105.9v-97c0-5.7,4.6-10.2,10.3-10.2
				c5.7,0,10.2,4.6,10.2,10.2v97c0,47.1,38.3,85.4,85.4,85.4h23.9c47.1,0,85.4-38.3,85.4-85.4v-97c0-5.7,4.6-10.2,10.2-10.2
				c5.7,0,10.3,4.6,10.3,10.2v97C830.6,733.7,783.1,781.2,724.7,781.2z"/>
		</g>
	</g>
	<path fill="#4A4B4D" d="M1132.4,1052.3c0-11.8-9.6-21.4-21.4-21.4H720c-11.8,0-21.4,9.6-21.4,21.4l0,0c0,11.8,9.6,21.4,21.4,21.4
		H1111C1122.8,1073.7,1132.4,1064.1,1132.4,1052.3L1132.4,1052.3z"/>
	<path fill="#4A4B4D" d="M756.4,1094.5c0-11.8-9.6-21.4-21.4-21.4H401.2c-11.8,0-21.4,9.6-21.4,21.4l0,0c0,11.8,9.6,21.4,21.4,21.4
		H735C746.8,1115.9,756.4,1106.3,756.4,1094.5L756.4,1094.5z"/>
	<path fill="#4A4B4D" d="M1177.1,1086.7c0-11.8-9.6-21.4-21.4-21.4H822c-11.8,0-21.4,9.6-21.4,21.4l0,0c0,11.8,9.6,21.4,21.4,21.4
		h333.7C1167.5,1108.1,1177.1,1098.5,1177.1,1086.7L1177.1,1086.7z"/>
	<g>
		<g>
			<polygon fill="#9E9A20" points="712.7,680.6 703,687.4 712.7,687.4 754.5,687.4 754.5,651.5 			"/>
			<polygon fill="#D6D12B" points="712.7,622.5 712.7,680.6 754.5,651.5 			"/>
			<polygon fill="#9E9A20" points="1081,680.6 1039.3,651.5 1039.3,687.4 1081,687.4 1090.7,687.4 			"/>
			<polygon fill="#D6D12B" points="1081,680.6 1081,622.5 1039.3,651.5 			"/>
			<polygon fill="#B8B325" points="754.5,687.4 896.8,687.4 1039.3,687.4 1039.3,651.5 1081,622.5 896.8,622.5 712.7,622.5 
				754.5,651.5 			"/>
			<path fill="#D6D12B" d="M1090.7,1002.5V687.4h-9.7h-41.8H896.8H754.5h-41.8H703v315.1c0,0-13.7,49.8,31.9,49.8h162h162
				C1104.4,1052.3,1090.7,1002.5,1090.7,1002.5z"/>
		</g>
		<path fill="#9E9A20" d="M805.8,773.3c0,8.8-7.1,15.9-15.9,15.9c-8.8,0-15.9-7.1-15.9-15.9c0-8.8,7.1-15.9,15.9-15.9
			C798.6,757.4,805.8,764.5,805.8,773.3z"/>
		<ellipse fill="#9E9A20" cx="1004.8" cy="773.3" rx="15.9" ry="15.9"/>
		<g>
			<path fill="#FFFFFF" d="M909.4,977h-23.9c-58.4,0-105.9-47.5-105.9-105.9v-97c0-5.7,4.6-10.3,10.2-10.3c5.7,0,10.3,4.6,10.3,10.3
				v97c0,47.1,38.3,85.4,85.4,85.4h23.9c47.1,0,85.4-38.3,85.4-85.4v-97c0-5.7,4.6-10.3,10.2-10.3c5.7,0,10.3,4.6,10.3,10.3v97
				C1015.3,929.5,967.8,977,909.4,977z"/>
		</g>
	</g>
	<g>
		<path fill="#394165" d="M760.9,831.2c0,13.8-11.2,25-25,25H400.3c-13.8,0-25-11.2-25-25v-52.1c0-13.8,11.2-25,25-25h335.5
			c13.8,0,25,11.2,25,25V831.2z"/>
		<path fill="#E04D60" d="M704.4,692.5l-0.2-0.8c-3.6-12.7-17.7-36.8-45.4-36.8c-9.7,0-20.3,2.9-31.5,8.8
			c-2.2,1.1-22.8,11.8-59.2,47.8c-36.5-36-57.1-46.7-59.2-47.8c-11.2-5.8-21.8-8.8-31.5-8.8c-27.7,0-41.8,24-45.4,36.8l-0.2,0.8
			c-3.3,19-0.3,34.2,8.8,45.1c12.9,15.3,33.8,16.5,39.8,16.5c0.8,0,1.3,0,1.6,0h77.6h16.7h77.6c0.3,0,0.9,0,1.7,0
			c6.1,0,26.9-1.2,39.8-16.5C704.7,726.7,707.7,711.5,704.4,692.5z M559.8,737.4h-77.8l-0.5,0c-0.1,0-0.4,0-1,0
			c-3,0-18.6-0.5-27.1-10.6c-5.8-6.9-7.6-17.3-5.3-31c1-3,8.6-24.3,29.2-24.3c7,0,15.1,2.3,23.9,6.9l0.2,0.1
			c0.2,0.1,20.8,10.4,58.3,48.1V737.4z M682.8,726.9c-8.5,10.1-24.1,10.6-27.1,10.6c-0.6,0-0.9,0-1,0l-78.3,0v-10.7
			c37.5-37.6,58.1-48,58.3-48.1l0.2-0.1c8.8-4.6,16.9-6.9,23.9-6.9c20.7,0,28.3,21.2,29.2,24.3C690.4,709.6,688.6,720,682.8,726.9z"
			/>
		<path fill="#E04D60" d="M614.8,753.4c0.2-1.8,0.4-3.7,0.4-5.5c0-26-21.1-47.1-47.1-47.1S521,721.9,521,747.9
			c0,1.9,0.1,3.7,0.4,5.5H614.8z"/>
		<g>
			<polygon fill="#2E3552" points="735.2,856.2 401,856.2 401,863.5 735.2,881.2 			"/>
			<path fill="#394165" d="M401,863.5v222.7c0,4.6,3.7,8.3,8.3,8.3h317.4c4.6,0,8.3-3.7,8.3-8.3v-205L401,863.5z"/>
		</g>
		<rect x="532.3" y="754.1" fill="#E04D60" width="71.5" height="340.4"/>
	</g>
	<g>
		<path fill="#00BB88" d="M1181.6,931.4c0,13.8-11.2,25-25,25H821.1c-13.8,0-25-11.2-25-25v-26c0-13.8,11.2-25,25-25h335.5
			c13.8,0,25,11.2,25,25V931.4z"/>
		<path fill="#FFE9A4" d="M1125.2,818.8l-0.2-0.8c-3.6-12.7-17.7-36.8-45.4-36.8c-9.7,0-20.3,2.9-31.5,8.8
			c-2.2,1.1-22.8,11.8-59.2,47.8c-36.5-36-57.1-46.7-59.3-47.8c-11.2-5.8-21.8-8.8-31.5-8.8c-27.7,0-41.8,24-45.4,36.8l-0.2,0.8
			c-3.3,19-0.3,34.2,8.8,45.1c12.9,15.3,33.8,16.5,39.9,16.5c0.8,0,1.3,0,1.6,0h77.6h16.7h77.6c0.3,0,0.9,0,1.6,0
			c6.1,0,27-1.2,39.9-16.5C1125.5,852.9,1128.5,837.8,1125.2,818.8z M980.5,863.7h-77.8l-0.5,0c-0.1,0-0.4,0-1,0
			c-3,0-18.6-0.5-27.1-10.6c-5.8-6.9-7.6-17.3-5.3-31c1-3,8.6-24.3,29.2-24.3c7,0,15.1,2.3,23.9,6.9l0.2,0.1
			c0.2,0.1,20.8,10.4,58.3,48.1V863.7z M1103.6,853.1c-8.5,10.1-24.1,10.6-27.1,10.6c-0.5,0-0.9,0-1,0l-78.3,0v-10.7
			c37.5-37.6,58.1-48,58.3-48.1l0.2-0.1c8.8-4.6,16.9-6.9,23.9-6.9c20.7,0,28.3,21.2,29.2,24.3
			C1111.1,835.8,1109.4,846.2,1103.6,853.1z"/>
		<path fill="#FFE9A4" d="M1035.6,879.7c0.2-1.8,0.4-3.7,0.4-5.5c0-26-21.1-47.1-47.1-47.1c-26,0-47.1,21.1-47.1,47.1
			c0,1.9,0.1,3.7,0.4,5.5H1035.6z"/>
		<g>
			<polygon fill="#00A679" points="1155.9,956.4 821.8,956.4 821.8,963.7 1155.9,981.4 			"/>
			<path fill="#00BB88" d="M821.8,963.7v114.7c0,4.6,3.8,8.3,8.3,8.3h317.4c4.6,0,8.3-3.7,8.3-8.3v-97L821.8,963.7z"/>
		</g>
		<rect x="953.1" y="880.3" fill="#FFE9A4" width="71.6" height="206.4"/>
	</g>
	<polygon fill="#00678F" points="397.4,417.8 212,417.8 262.7,346.5 212,275.1 397.4,275.1 	"/>
	<polygon fill="#00678F" points="1124.3,417.8 1309.8,417.8 1259,346.5 1309.8,275.1 1124.3,275.1 	"/>
	<rect x="334.4" y="203.8" fill="#007EAE" width="853" height="142.6"/>
	<g>
		<path fill="#FF705A" d="M1130.5,264.6c7.2-7.2,12.9-4.8,12.7,5.4l-2.3,95.7c-0.2,10.2,7.9,18.4,18.1,18.1l95.7-2.3
			c10.2-0.3,12.7,5.5,5.4,12.7l-166.5,166.5c-7.2,7.2-21.5,13.2-31.8,13.3l-93.6,0.8c-10.2,0.1-18.5-8.2-18.4-18.4l0.8-93.6
			c0.1-10.2,6.1-24.5,13.3-31.8L1130.5,264.6z"/>
		<path fill="#FFFFFF" d="M1078.6,545.7c-3.3,3.3-12.3,7.1-16.9,7.1l-90.6,0.8l0.8-90.6c0-4.6,3.8-13.6,7.1-16.9l142.1-142.1
			l-1.5,61.2c-0.3,10.7,3.9,21.1,11.4,28.5c7.5,7.5,17.9,11.6,28.5,11.4l61.2-1.5L1078.6,545.7z"/>
		<path fill="#E0E0E0" d="M1123.7,441.8c3.5-3.5,9.1-3.5,12.5,0l0,0c3.5,3.5,3.5,9.1,0,12.5l-73.9,73.9c-3.5,3.5-9.1,3.5-12.5,0l0,0
			c-3.5-3.5-3.5-9.1,0-12.5L1123.7,441.8z"/>
		<path fill="#E0E0E0" d="M1097.1,415.1c3.5-3.5,9.1-3.5,12.5,0l0,0c3.5,3.5,3.5,9.1,0,12.5l-73.9,73.9c-3.5,3.5-9.1,3.5-12.5,0l0,0
			c-3.5-3.5-3.5-9.1,0-12.5L1097.1,415.1z"/>
		<path fill="#E0E0E0" d="M1070.5,388.5c3.5-3.5,9.1-3.5,12.5,0l0,0c3.5,3.5,3.5,9.1,0,12.5l-73.9,73.9c-3.5,3.5-9.1,3.5-12.5,0l0,0
			c-3.5-3.5-3.5-9.1,0-12.5L1070.5,388.5z"/>
	</g>
	<text transform="matrix(1 0 0 1 510.2773 318.7354)" fill="#FFFFFF" font-family="'Oswald'" font-size="98.9357">ONLINE SHOP</text>
</g>
</svg>
