<svg id="design" xmlns="http://www.w3.org/2000/svg" viewBox="0 0 1230 620"><title>vector-mobile-app-gui-set</title><rect id="background" width="1230" height="620" fill="#fff"/><g id="map"><g id="mobile"><rect x="930" y="60" width="240" height="500" rx="20" ry="20" fill="#474f59"/><path d="M1065,535a15,15,0,1,1-15-15A15,15,0,0,1,1065,535Z" fill="#656a73"/><rect x="930" y="130" width="240" height="380" fill="#adecf7"/><path d="M1000,105a5,5,0,1,0,5-5A5,5,0,0,0,1000,105Z" fill="#656a73"/><path d="M1022.76,110h54.49c1.51,0,2.75-2.24,2.75-5s-1.24-5-2.75-5h-54.49c-1.53,0-2.76,2.24-2.76,5S1021.23,110,1022.76,110Z" fill="#656a73"/><path d="M1045,85a5,5,0,1,0,5-5A5,5,0,0,0,1045,85Z" fill="#656a73"/><path d="M1048,85a2,2,0,1,0,2-2A2,2,0,0,0,1048,85Z" fill="#ccd1d9"/></g><g id="content"><path d="M966.35,325.84l33,88.8,35.45-40.05-63.4-53.41A20.54,20.54,0,0,1,966.35,325.84Z" fill="#adecf7"/><path d="M987.39,130c15.37,10.35,41.89,25.53,87.61,47.43l1.75.83L1111.12,130Z" fill="#adecf7"/><polygon points="1151.47 510 1170 510 1170 483.51 1148.79 506.2 1151.47 510" fill="#e6e5e5"/><polygon points="965.38 470.11 930.08 510 993.02 510 988.79 494.94 965.38 470.11" fill="#e6e5e5"/><path d="M1169.81,468.75c-11.74-.91-20.91-1.09-25.8-.2-10.37,1.88-15.75,3.56-18.46,4.66l19.92,28.27L1170,477.26Z" fill="#adecf7"/><polygon points="1097.58 453.11 1085.07 435.35 1061.3 438.94 1078.72 466.38 1097.58 453.11" fill="#e6e5e5"/><polygon points="972.9 461.62 998.92 489.21 1004.75 510 1022.82 510 995.37 436.23 972.9 461.62" fill="#e6e5e5"/><polygon points="1053.24 437.5 1021.23 407.01 1014.2 414.96 1045.19 456.92 1053.24 437.5" fill="#e6e5e5"/><polygon points="1034.28 483.22 1042.67 463.01 1010.37 419.29 1003.86 426.64 1031.11 499.88 1039.58 493.92 1034.28 483.22" fill="#e6e5e5"/><polygon points="930 439.5 930 493.04 957.12 462.4 930 439.5" fill="#e6e5e5"/><path d="M934.82,308.61a20.12,20.12,0,0,1,.29-3.41L930,300.6v38.7l11.7-15.4A20.42,20.42,0,0,1,934.82,308.61Z" fill="#e6e5e5"/><polygon points="1082.71 429.99 1088.52 419.81 1043.48 381.88 1024.98 402.78 1057.54 433.79 1082.71 429.99" fill="#e6e5e5"/><polygon points="1074.09 469.63 1057.12 442.89 1049.07 462.33 1057.67 481.19 1074.09 469.63" fill="#e6e5e5"/><polygon points="1033.36 505.2 1032.78 504.38 1034.87 510 1047.55 510 1042.12 499.04 1033.36 505.2" fill="#e6e5e5"/><polygon points="1081.75 471.15 1100.14 500.12 1108.04 510 1137.5 510 1137.58 509.91 1100.83 457.73 1081.75 471.15" fill="#e6e5e5"/><polygon points="1044.26 490.63 1052.97 484.5 1046.11 469.46 1040.49 483.02 1044.26 490.63" fill="#e6e5e5"/><polygon points="1046.79 495.75 1053.85 510 1064.6 510 1055.35 489.73 1046.79 495.75" fill="#e6e5e5"/><polygon points="1095.45 503.27 1077.13 474.41 1060.06 486.42 1070.81 510 1100.81 510 1095.54 503.41 1095.45 503.27" fill="#e6e5e5"/><polygon points="1104.97 331.42 1162.85 263.56 1170 268.32 1170 238.94 1095.34 323.28 1104.97 331.42" fill="#e6e5e5"/><path d="M1110.07,451.22l8.86,12.58c4.21-2.15,11.24-4.22,23.06-6.37,5.62-1,15.59-.87,28,.05v-100l-44.57,82.91Z" fill="#e6e5e5"/><polygon points="1158.24 367.44 1170 345.57 1170 299.71 1137.59 356.55 1158.24 367.44" fill="#e6e5e5"/><polygon points="1121.09 436.56 1155.57 372.42 1134.79 361.46 1095.45 430.46 1106.82 446.61 1121.09 436.56" fill="#e6e5e5"/><path d="M1122.58,469l1.22,1.72a5.06,5.06,0,0,0-1-1.93Z" fill="#e6e5e5"/><polygon points="1061.55 382.31 1071.1 371.11 1061.51 361.51 1050.97 373.41 1061.55 382.31" fill="#e6e5e5"/><polygon points="1114.64 373.99 1092.03 355.28 1079.72 369.71 1109.98 382.17 1114.64 373.99" fill="#e6e5e5"/><polygon points="1065.25 357.27 1074.78 366.8 1087.68 351.68 1077.59 343.34 1065.25 357.27" fill="#e6e5e5"/><path d="M1109.28,335.06l18.6,15.72L1167,282.17l0,0c.19-.31.4-.62.59-.94l2.46-4.31v-1.78l-6.1-4.07Z" fill="#e6e5e5"/><polygon points="1081.34 339.11 1091.35 347.38 1101.3 335.71 1091.6 327.52 1081.34 339.11" fill="#e6e5e5"/><path d="M955.3,288.13h.21l13.08-101.38L949,130H930V285.4l10.31,9.27A20.42,20.42,0,0,1,955.3,288.13Z" fill="#e6e5e5"/><path d="M990.9,424.23l-35.4-95.15h-.2a20.52,20.52,0,0,1-3.16-.25L930,358v66.73l34.61,29.23Z" fill="#e6e5e5"/><path d="M946.12,308.61a9.18,9.18,0,1,0,9.18-9.18A9.19,9.19,0,0,0,946.12,308.61Z" fill="#e6e5e5"/><polygon points="1095.7 350.98 1117.48 369 1125.03 355.77 1105.62 339.36 1095.7 350.98" fill="#e6e5e5"/><path d="M975.75,219.56l1.48,1.29-.32-1.51,79.49-17,13.46-14.81c-29.61-14.19-53.85-26.84-72-37.58-14.15-8.37-23.39-14.84-29.5-19.92H961l19.19,55.56Z" fill="#e6e5e5"/><polygon points="1107.16 387.12 1075.86 374.23 1065.87 385.95 1094.21 409.83 1107.16 387.12" fill="#e6e5e5"/><path d="M1169.56,220l.44-1.1V210.4a68.38,68.38,0,0,1-16.46,2.7C1160.37,216.06,1165.86,218.4,1169.56,220Z" fill="#e6e5e5"/><path d="M1113.31,195.26l1.64.75c7.83,2.53,35.15,10.28,55,2.45V140.39l-5.84-4.79Z" fill="#e6e5e5"/><path d="M1159.79,132l-2.47-2h-39.26l-36.13,50.73c8.87,4.2,17.63,8.26,26,12.1Z" fill="#e6e5e5"/><polygon points="1016.33 254.8 1038.35 273.92 1078.23 227.49 1057.42 209.59 1016.33 254.8" fill="#adecf7"/><polygon points="1166.24 130 1170 133.08 1170 130 1166.24 130" fill="#e6e5e5"/><path d="M1081.91,223.21l18.42-21.45c-8.15-3.73-16.61-7.67-25.15-11.72l-14,15.36Z" fill="#e6e5e5"/><path d="M1108.82,205.85l.07-.18-3.21-1.46-19.48,22.68,22.32,19.21,26.87-28.6c-7.42-3.26-15.67-6.93-24.45-10.9C1109.78,206.2,1109,205.94,1108.82,205.85Z" fill="#e6e5e5"/><polygon points="1012.07 251.1 1049.88 209.48 981.11 224.22 1012.07 251.1" fill="#e6e5e5"/><polygon points="1063 302.81 1051.98 314.54 1072.65 331.88 1083.01 320.17 1063 302.81" fill="#e6e5e5"/><path d="M1140.88,219.91l-74,78.78,19.88,17.25,76.47-86.39C1158,227.34,1150.31,224,1140.88,219.91Z" fill="#e6e5e5"/><polygon points="1000.94 271.74 1023.78 290.89 1034.67 278.21 1012.53 258.99 1000.94 271.74" fill="#e6e5e5"/><polygon points="1082.51 231.18 1042.62 277.63 1062.61 294.98 1104.65 250.22 1082.51 231.18" fill="#e6e5e5"/><polygon points="984.21 290.16 1031.27 328.33 1043.77 315.03 997.14 275.92 984.21 290.16" fill="#e6e5e5"/><polygon points="1038.94 281.91 1028.11 294.52 1047.64 310.9 1058.73 299.1 1038.94 281.91" fill="#e6e5e5"/><polygon points="968.3 277.27 979.81 286.6 992.81 272.29 971.27 254.23 968.3 277.27" fill="#e6e5e5"/><polygon points="1042.33 366.13 1053.44 353.58 1031.79 336.03 1020.66 347.88 1042.33 366.13" fill="#e6e5e5"/><polygon points="972.13 247.58 996.61 268.11 1008.27 255.28 974.88 226.29 972.13 247.58" fill="#e6e5e5"/><path d="M1016.33,344.23l11.06-11.77-47-38.11-5.9,6.49-.44-.4a20.23,20.23,0,0,1,1.72,8.17c0,.47,0,.94-.06,1.4Z" fill="#e6e5e5"/><path d="M966.47,291.46a20.68,20.68,0,0,1,4.88,4.45l4.66-5.13-8.55-6.93Z" fill="#e6e5e5"/><polygon points="1048.1 318.67 1035.67 331.9 1057.18 349.35 1068.9 336.11 1048.1 318.67" fill="#e6e5e5"/><path d="M1166.24,130h-8.92l2.47,2L1108,192.83l5.35,2.43,50.85-59.66,5.84,4.79v-7.31Z" fill="#fff"/><path d="M1118.06,130h-6.94l-34.37,48.26,5.18,2.47Z" fill="#fff"/><path d="M1168.11,477.26l-22.64,24.22,3.32,4.72L1170,483.51V468.77l-.19,0Z" fill="#fff"/><path d="M1016.33,344.23l4.33,3.65L1031.79,336l21.65,17.55,3.75-4.23-21.52-17.45,12.43-13.23,20.8,17.44,3.75-4.23L1052,314.54l11-11.73,20,17.36,3.74-4.23-19.88-17.25,74-78.78-5.49-2.41-26.87,28.6-22.32-19.21,19.48-22.68-5.35-2.45-18.42,21.45-20.69-17.81,14-15.36-5.06-2.42-.26-.12-13.46,14.81-79.49,17,.32,1.51-1.48-1.29-.87,6.73,33.39,29-11.66,12.83-24.48-20.53-.85,6.65,21.53,18.06-13,14.31-11.51-9.33-.84,6.58,8.55,6.93-4.66,5.13a20.52,20.52,0,0,1,2.71,4.53l.44.4,5.9-6.49,47,38.11Zm31.31-33.33-19.53-16.38,10.83-12.61,19.79,17.19Zm34.87-79.72,22.14,19L1062.6,295l-20-17.35Zm-25.09-21.59,20.81,17.9-39.88,46.43-22-19.12Zm-76.31,14.63,68.77-14.74-37.81,41.62ZM1012.53,259l22.14,19.22-10.89,12.68-22.84-19.15Zm-28.32,31.17,12.93-14.24L1043.77,315l-12.5,13.3Z" fill="#fff"/><path d="M1081.75,471.15l19.08-13.42-3.25-4.62-18.86,13.27-17.42-27.44,23.77-3.59-3-4.25.63-1.11-25.17,3.8-32.56-31-3.75,4.23,32,30.49-8,19.42-31-42-3.83,4.33,32.3,43.72-8.39,20.21,5.3,10.7-8.47,6,1.67,4.5.58.82,8.76-6.16,5.43,11h6.3l-7.06-14.25,8.56-6L1064.6,510h6.21l-10.75-23.58,17.07-12,18.32,28.87.09.13,5.27,6.59H1108l-7.9-9.88Zm-37.49,19.48-3.77-7.61,5.62-13.56,6.86,15Zm13.41-9.44-8.6-18.86,8-19.44,17,26.74Z" fill="#fff"/><polygon points="1104.97 331.42 1095.34 323.28 1091.6 327.52 1101.3 335.71 1091.35 347.38 1081.34 339.11 1077.59 343.34 1087.68 351.68 1074.78 366.8 1065.25 357.27 1061.51 361.51 1071.1 371.11 1061.55 382.31 1065.87 385.95 1075.86 374.23 1107.16 387.12 1109.98 382.17 1079.72 369.71 1092.03 355.28 1114.64 373.99 1117.48 369 1095.7 350.98 1105.62 339.36 1125.03 355.77 1127.88 350.78 1109.28 335.06 1163.89 271.04 1170 275.11 1170 268.32 1162.85 263.56 1104.97 331.42" fill="#fff"/><polygon points="1137.59 356.55 1134.79 361.46 1155.57 372.42 1121.09 436.56 1106.82 446.61 1110.07 451.22 1125.43 440.41 1170 357.5 1170 345.57 1158.24 367.44 1137.59 356.55" fill="#fff"/><path d="M1170,198.46c-19.9,7.83-47.22.08-55-2.45l-1.64-.75-5.35-2.43c-8.4-3.84-17.16-7.9-26-12.1l-5.18-2.47-1.75-.83c-45.72-21.9-72.24-37.08-87.61-47.43H968.32c6.11,5.08,15.35,11.55,29.5,19.92,18.19,10.74,42.43,23.39,72,37.58l.26.12,5.06,2.42c8.54,4.05,17,8,25.15,11.72l5.35,2.45,3.21,1.46-.07.18c.22.09,1,.35,2.12.75,8.78,4,17,7.64,24.45,10.9l5.49,2.41c9.43,4.12,17.15,7.43,22.34,9.64l-76.47,86.39-3.74,4.23-10.36,11.71-3.75,4.23-11.71,13.24-3.75,4.23-11.11,12.55-21.67-18.25-4.33-3.65L975.72,310c0-.46.06-.93.06-1.4a20.23,20.23,0,0,0-1.72-8.17,20.4,20.4,0,0,0-7.59-9l1-7.61.84-6.58,3-23,.85-6.65,2.75-21.29.87-6.73,4.39-34L961,130H949l19.59,56.75L955.51,288.13h-.21a20.42,20.42,0,0,0-15,6.54L930,285.4v15.2l5.11,4.6a20.12,20.12,0,0,0-.29,3.41,20.42,20.42,0,0,0,6.88,15.29L930,339.3V358l22.14-29.14a20.52,20.52,0,0,0,3.16.25h.2l35.4,95.15-26.29,29.71L930,424.71V439.5l27.12,22.9L930,493v17h.08l35.31-39.89,23.4,24.83L993,510h11.74l-5.84-20.79-26-27.59,22.46-25.39L1022.82,510h12l-2.09-5.62-1.67-4.5-27.25-73.24,6.51-7.35,3.83-4.33,7-7.95,3.75-4.23,18.51-20.9,45,37.93L1082.71,430l-.63,1.11,3,4.25,12.51,17.76,3.25,4.62,36.75,52.18.07.09h13.82l-2.68-3.8-3.32-4.72-19.92-28.27c2.71-1.1,8.09-2.78,18.46-4.66,4.89-.89,14.06-.71,25.8.2l.19,0V457.48c-12.42-.92-22.39-1.07-28-.05-11.82,2.15-18.85,4.22-23.06,6.37l-8.86-12.58-3.25-4.61-11.37-16.15,39.34-69,2.8-4.91L1170,299.71V276.89l-2.46,4.31c-.19.32-.4.63-.59.94l0,0-39.11,68.61-2.85,5L1117.49,369l-2.85,5-4.66,8.18-2.82,4.95-13,22.71L1065.87,386l-4.32-3.65-10.57-8.9,10.53-11.89,3.74-4.25,12.34-13.93,3.75-4.23,10.26-11.59,3.74-4.24L1170,238.94V218.87l-.44,1.1c-3.7-1.57-9.19-3.91-16-6.87a68.38,68.38,0,0,0,16.46-2.7ZM955.3,317.79a9.18,9.18,0,1,1,9.18-9.18A9.19,9.19,0,0,1,955.3,317.79Zm44.09,96.85-33-88.8a20.54,20.54,0,0,0,5.09-4.66l63.4,53.41Zm123.45,54.14a5.06,5.06,0,0,1,1,1.93l-1.22-1.72Z" fill="#fec363"/><rect x="930" y="130" width="240" height="39.69" fill="#fc6e51"/><rect x="967.88" y="138.75" width="164.25" height="22.5" rx="3" ry="3" fill="#fff"/><text transform="translate(984.37 153.07)" font-size="10.5" fill="#98a0ad" font-family="Roboto-Medium, Roboto" letter-spacing="0.01em">Sea<tspan x="17.97" y="0" letter-spacing="0em">r</tspan><tspan x="21.67" y="0">ch or enter an add</tspan><tspan x="108.36" y="0" letter-spacing="0em">r</tspan><tspan x="112.05" y="0" letter-spacing="0.01em">ess</tspan></text><path d="M955.5,145.5l-6.75-3.75v3h-2.63a4.13,4.13,0,0,0-4.12,4.13v9.37h1.5v-9.37a2.63,2.63,0,0,1,2.62-2.63h2.63v3Z" fill="#fff"/><polygon points="1154.25 143.41 1150.85 140.06 1147.5 143.41 1148.04 143.95 1150.5 141.48 1150.5 152.81 1151.25 152.81 1151.25 141.52 1153.71 143.95 1154.25 143.41" fill="#fff"/><polygon points="1152.75 145.69 1152.75 146.44 1157.25 146.44 1157.25 159.19 1144.5 159.19 1144.5 146.44 1149 146.44 1149 145.69 1143.75 145.69 1143.75 159.94 1158 159.94 1158 145.69 1152.75 145.69" fill="#fff"/><rect x="930" y="477" width="240" height="33" fill="#f6f6f6" opacity="0.9"/><path d="M1148.62,484.87a8.63,8.63,0,1,1-8.62,8.63,8.64,8.64,0,0,1,8.62-8.63m0-.75a9.38,9.38,0,1,0,9.38,9.38,9.38,9.38,0,0,0-9.38-9.38Z" fill="#fc6e51"/><circle cx="1149" cy="489.75" r="0.84" fill="#fc6e51"/><polygon points="1149.75 497.63 1149.75 491.63 1147.5 491.63 1147.5 492.38 1148.25 492.38 1148.25 497.63 1147.5 497.63 1147.5 498.38 1150.5 498.38 1150.5 497.63 1149.75 497.63" fill="#fc6e51"/><polygon points="945 505.13 950.63 490.88 956.25 505.13 950.63 499.88 945 505.13" fill="#fc6e51"/><rect x="950.25" y="484.88" width="0.75" height="4.5" fill="#fc6e51"/><ellipse cx="1111" cy="244.65" rx="1.2" ry="0.5" fill="#8b8e94"/><path d="M1111.2,227.34h-.4c-.13,0-.27,0-.4,0v17a.6.6,0,1,0,1.2,0v-17C1111.47,227.33,1111.34,227.33,1111.2,227.34Z" fill="#ccd1d9"/><circle cx="1111" cy="221.95" r="5.4" fill="#fc6e51"/><circle cx="1109.2" cy="220.15" r="1.2" fill="#f9f5ec"/><ellipse cx="1050" cy="429.65" rx="1.2" ry="0.5" fill="#8b8e94"/><path d="M1050.2,412.34h-.4c-.13,0-.27,0-.4,0v17a.6.6,0,0,0,1.2,0v-17C1050.47,412.33,1050.33,412.33,1050.2,412.34Z" fill="#ccd1d9"/><circle cx="1050" cy="406.95" r="5.4" fill="#fc6e51"/><circle cx="1048.2" cy="405.15" r="1.2" fill="#f9f5ec"/></g></g><g id="telephone"><g id="mobile-2" data-name="mobile"><rect x="640" y="60" width="240" height="500" rx="20" ry="20" fill="#474f59"/><path d="M775,535a15,15,0,1,1-15-15A15,15,0,0,1,775,535Z" fill="#656a73"/><rect x="640" y="130" width="240" height="380" fill="#adecf7"/><path d="M710,105a5,5,0,1,0,5-5A5,5,0,0,0,710,105Z" fill="#656a73"/><path d="M732.76,110h54.49c1.51,0,2.75-2.24,2.75-5s-1.24-5-2.75-5H732.76c-1.53,0-2.76,2.24-2.76,5S731.23,110,732.76,110Z" fill="#656a73"/><path d="M755,85a5,5,0,1,0,5-5A5,5,0,0,0,755,85Z" fill="#656a73"/><path d="M758,85a2,2,0,1,0,2-2A2,2,0,0,0,758,85Z" fill="#ccd1d9"/></g><g id="content-2" data-name="content"><path d="M782.5,460A22.5,22.5,0,1,1,760,437.5,22.5,22.5,0,0,1,782.5,460Z" fill="#fc6e51"/><path d="M852.5,180A22.5,22.5,0,1,1,830,157.5,22.51,22.51,0,0,1,852.5,180Z" fill="#fff"/><path d="M782.5,180A22.5,22.5,0,1,1,760,157.5,22.5,22.5,0,0,1,782.5,180Z" fill="#fff"/><path d="M712.5,180A22.5,22.5,0,1,1,690,157.5,22.51,22.51,0,0,1,712.5,180Z" fill="#fc6e51"/><path d="M852.5,250A22.5,22.5,0,1,1,830,227.5,22.51,22.51,0,0,1,852.5,250Z" fill="#fff"/><path d="M782.5,250A22.5,22.5,0,1,1,760,227.5,22.5,22.5,0,0,1,782.5,250Z" fill="#fff"/><path d="M712.5,250A22.5,22.5,0,1,1,690,227.5,22.51,22.51,0,0,1,712.5,250Z" fill="#fff"/><path d="M852.5,320A22.5,22.5,0,1,1,830,297.5,22.51,22.51,0,0,1,852.5,320Z" fill="#fff"/><path d="M782.5,320A22.5,22.5,0,1,1,760,297.5,22.5,22.5,0,0,1,782.5,320Z" fill="#fff"/><path d="M712.5,320A22.5,22.5,0,1,1,690,297.5,22.51,22.51,0,0,1,712.5,320Z" fill="#fff"/><path d="M852.5,390A22.5,22.5,0,1,1,830,367.5,22.51,22.51,0,0,1,852.5,390Z" fill="#fff"/><path d="M782.5,390A22.5,22.5,0,1,1,760,367.5,22.5,22.5,0,0,1,782.5,390Z" fill="#fff"/><path d="M712.5,390A22.5,22.5,0,1,1,690,367.5,22.51,22.51,0,0,1,712.5,390Z" fill="#fff"/><path d="M750.05,451.47C748.06,456.12,756,464,756,464l0,0s7.92,7.92,12.57,5.93c0,0,2.19-1.82,1.66-3.08a8.82,8.82,0,0,0-5.22-3.32,8.16,8.16,0,0,0-2.84,1.42s-1.19-.24-4-3.07-3.08-4-3.08-4a8.15,8.15,0,0,0,1.42-2.85,8.83,8.83,0,0,0-3.31-5.21C751.87,449.28,750.05,451.47,750.05,451.47Z" fill="#fff"/><text transform="translate(823.59 397.14)" font-size="21" fill="#fc6e51" font-family="Roboto-Medium, Roboto">#</text><text transform="translate(754.03 397.14)" font-size="21" fill="#fc6e51" font-family="Roboto-Medium, Roboto">0</text><path d="M688.15,390.75l-4.58-1.31.83-2.54,4.53,1.76-.23-5.16h2.69l-.23,5.25,4.46-1.73.81,2.58-4.65,1.32,3,4-2.18,1.59-2.7-4.32-2.67,4.19L685,394.83Z" fill="#fc6e51"/><text transform="translate(824.03 327.14)" font-size="21" fill="#fc6e51" font-family="Roboto-Medium, Roboto">9</text><text transform="translate(754.03 327.14)" font-size="21" fill="#fc6e51" font-family="Roboto-Medium, Roboto">8</text><text transform="translate(684.03 327.14)" font-size="21" fill="#fc6e51" font-family="Roboto-Medium, Roboto">7</text><text transform="translate(824.03 257.14)" font-size="21" fill="#fc6e51" font-family="Roboto-Medium, Roboto">6</text><text transform="translate(754.03 257.14)" font-size="21" fill="#fc6e51" font-family="Roboto-Medium, Roboto">5</text><text transform="translate(684.03 257.14)" font-size="21" fill="#fc6e51" font-family="Roboto-Medium, Roboto">4</text><text transform="translate(824.03 187.14)" font-size="21" fill="#fc6e51" font-family="Roboto-Medium, Roboto">3</text><text transform="translate(754.03 187.14)" font-size="21" fill="#fc6e51" font-family="Roboto-Medium, Roboto">2</text><text transform="translate(684.03 187.14)" font-size="21" fill="#fff" font-family="Roboto-Medium, Roboto">1</text></g></g><g id="music"><g id="mobile-3" data-name="mobile"><rect x="350" y="60" width="240" height="500" rx="20" ry="20" fill="#474f59"/><path d="M485,535a15,15,0,1,1-15-15A15,15,0,0,1,485,535Z" fill="#656a73"/><rect x="350" y="130" width="240" height="308.33" fill="#fec363"/><path d="M420,105a5,5,0,1,0,5-5A5,5,0,0,0,420,105Z" fill="#656a73"/><path d="M442.76,110h54.49c1.51,0,2.75-2.24,2.75-5s-1.24-5-2.75-5H442.76c-1.53,0-2.76,2.24-2.76,5S441.23,110,442.76,110Z" fill="#656a73"/><path d="M465,85a5,5,0,1,0,5-5A5,5,0,0,0,465,85Z" fill="#656a73"/><path d="M468,85a2,2,0,1,0,2-2A2,2,0,0,0,468,85Z" fill="#ccd1d9"/></g><g id="content-3" data-name="content"><rect x="350" y="170" width="240" height="340" fill="#656a73"/><text transform="translate(447.66 154.09)" font-size="14" fill="#fff" font-family="Roboto-Medium, Roboto" letter-spacing="0.03em">MUSIC</text><text transform="translate(437.28 370.51)" font-size="12" fill="#fff" font-family="Roboto-Medium, Roboto" letter-spacing="0.01em">F<tspan x="6.76" y="0" letter-spacing="0.03em">unky Song</tspan></text><text transform="translate(423.16 388.22)" font-size="11" fill="#f77b55" font-family="Roboto-Medium, Roboto" letter-spacing="0.02em">Music Album<tspan x="67.76" y="0" letter-spacing="0em"> </tspan><tspan x="70.45" y="0" letter-spacing="0.03em">Title</tspan></text><path d="M488.26,424A18.26,18.26,0,1,1,470,405.74,18.26,18.26,0,0,1,488.26,424Z" fill="#353f49"/><polygon points="472.43 427.51 466.35 431.03 466.35 424 466.35 416.96 472.43 420.48 478.52 424 472.43 427.51" fill="#fff"/><polygon points="521.01 421.12 516.02 418.23 516.02 423.72 511.51 421.12 506.52 418.23 506.52 424 506.52 429.77 511.51 426.88 516.02 424.28 516.02 429.77 521.01 426.88 526 424 521.01 421.12" fill="#fff"/><polygon points="418.99 421.12 423.98 418.23 423.98 423.72 428.49 421.12 433.48 418.23 433.48 424 433.48 429.77 428.49 426.88 423.98 424.28 423.98 429.77 418.99 426.88 414 424 418.99 421.12" fill="#fff"/><path d="M429.51,367.72a2.9,2.9,0,0,1-.4.55,2.24,2.24,0,0,1-.4.34,2.58,2.58,0,0,0,.18-.49,2.74,2.74,0,0,0,.11-.9,2,2,0,0,0-.35-1,2.33,2.33,0,0,0-.92-.77h0a1.06,1.06,0,0,0-.26-.1v4.55a1,1,0,0,1,0,.17h0a1.49,1.49,0,0,1-.49.89,2,2,0,0,1-.82.48,2.11,2.11,0,0,1-1.29,0,1.07,1.07,0,0,1-.71-.66,1,1,0,0,1,.09-.75,2.07,2.07,0,0,1,1.2-.92,2.87,2.87,0,0,1,.56-.1,2.54,2.54,0,0,1,.39,0h0l.28.07.2.07h0V362.5a3.75,3.75,0,0,1,.5.15s0,0,0,0a3.59,3.59,0,0,1,2.41,2.69A3.39,3.39,0,0,1,429.51,367.72Z" fill="#fff"/><g id="soul-singer"><path d="M525.47,255.35c0,1.25-2.21,2.41-2.3,3.64s2,2.69,1.79,3.91-2.52,2.1-2.77,3.3,1.57,2.94,1.24,4.12-2.79,1.72-3.2,2.89,1.15,3.12.66,4.25-3,1.32-3.56,2.42.71,3.25.07,4.3-3.14.9-3.86,1.91.27,3.31-.51,4.27-3.24.47-4.08,1.37-.19,3.32-1.09,4.17-3.27,0-4.23.8-.63,3.26-1.64,4-3.24-.42-4.3.23-1.06,3.14-2.17,3.71-3.15-.86-4.28-.36-5.66,2.1-6.86,2.43-5.88,1.31-7.12,1.47-6,.49-7.26.49-6-.32-7.26-.49-5.94-1.14-7.13-1.47-5.72-1.94-6.86-2.44-3.19.94-4.28.37-1.11-3.07-2.17-3.72-3.29.49-4.3-.22-.68-3.2-1.64-4-3.32,0-4.23-.8-.24-3.26-1.09-4.17-3.29-.4-4.08-1.37.2-3.26-.51-4.27-3.21-.85-3.86-1.91.65-3.2.08-4.3-3.07-1.28-3.56-2.41,1.07-3.09.66-4.26-2.86-1.68-3.2-2.88,1.49-2.9,1.24-4.12-2.6-2.06-2.77-3.3,1.87-2.67,1.78-3.91-2.29-2.39-2.29-3.64,2.21-2.42,2.29-3.64-1.95-2.7-1.78-3.92,2.52-2.09,2.77-3.29-1.57-2.94-1.24-4.13,2.79-1.72,3.2-2.88-1.15-3.12-.66-4.26,3-1.31,3.56-2.41-.71-3.25-.07-4.31,3.14-.89,3.86-1.9-.27-3.31.51-4.27,3.24-.47,4.08-1.37.19-3.32,1.09-4.17,3.27,0,4.23-.8.63-3.26,1.64-4,3.24.42,4.3-.23,1.06-3.14,2.17-3.71,3.14.86,4.28.36,1.49-3,2.66-3.39,3,1.29,4.19.95,1.88-2.73,3.1-3,2.79,1.68,4,1.51,2.23-2.45,3.47-2.54,2.54,2.05,3.79,2.05,2.56-2.13,3.78-2.05,2.26,2.38,3.48,2.54,2.83-1.76,4-1.51,1.91,2.66,3.1,3,3-1.37,4.2-1,1.52,2.89,2.65,3.39,3.2-.94,4.29-.37,1.11,3.07,2.17,3.72,3.29-.49,4.3.22.68,3.2,1.64,4,3.32,0,4.23.8.24,3.26,1.09,4.17,3.29.4,4.08,1.37-.21,3.25.51,4.27,3.21.84,3.85,1.9-.64,3.21-.07,4.31,3.07,1.28,3.56,2.42-1.07,3.08-.66,4.25,2.86,1.68,3.2,2.88-1.49,2.9-1.24,4.12,2.6,2.06,2.77,3.29-1.87,2.68-1.79,3.92S525.47,254.1,525.47,255.35Z" fill="#353f49"/><path d="M490.89,263.4c-5.5-5.6-13.21-8.58-21.9-8.58-9,0-17.11,3.2-22.63,9.1V303.8a34.54,34.54,0,0,0,44.53.13Z" fill="#9c796d"/><path d="M462.76,271.9h0a18.72,18.72,0,0,0-6-.95,23.35,23.35,0,0,0-6.73,1.05,1,1,0,0,0-.63,1.19.94.94,0,0,0,.91.68.9.9,0,0,0,.28,0,21.12,21.12,0,0,1,6.17-1,16.5,16.5,0,0,1,5.35.85,1,1,0,0,0,1.21-.6A1,1,0,0,0,462.76,271.9Z" fill="#353f49"/><path d="M474.25,271.9h0a18.7,18.7,0,0,1,5.95-.95,23.29,23.29,0,0,1,6.73,1.05,1,1,0,0,1-.28,1.87.84.84,0,0,1-.27,0,21.24,21.24,0,0,0-6.18-1,16.48,16.48,0,0,0-5.34.85,1,1,0,0,1-.61-1.82Z" fill="#353f49"/><path d="M466.69,277.77l-6.28-.91-2.81-5.7a1.07,1.07,0,0,0-1.91,0l-2.81,5.7-6.28.91a1.06,1.06,0,0,0-.59,1.81l4.55,4.43-1.07,6.26a1.06,1.06,0,0,0,1.54,1.12l5.62-2.95,5.61,2.95a1.11,1.11,0,0,0,.5.12,1.07,1.07,0,0,0,1.05-1.24L462.73,284l4.55-4.43a1.06,1.06,0,0,0-.59-1.81Z" fill="#ffd479"/><path d="M491.47,278.49a1.05,1.05,0,0,0-.86-.72l-6.28-.91-2.81-5.7a1.06,1.06,0,0,0-1.9,0l-2.81,5.7-6.28.91a1.06,1.06,0,0,0-.59,1.81l4.54,4.43-1.07,6.26a1.06,1.06,0,0,0,1.54,1.12l5.62-2.95,5.62,2.95a1,1,0,0,0,.49.12,1.12,1.12,0,0,0,.63-.2,1.08,1.08,0,0,0,.42-1L486.66,284l4.54-4.43A1,1,0,0,0,491.47,278.49Z" fill="#ffd479"/><path d="M458.67,297.21a10.39,10.39,0,0,0,3.27,5.48h16.12a10.45,10.45,0,0,0,3.27-5.48Z" fill="#bd4e37"/><path d="M461.94,302.69a14,14,0,0,0,16.12,0s-2.75-1.64-8.06-1.64S461.94,302.69,461.94,302.69Z" fill="#fc6e51"/><rect x="458.67" y="295.5" width="22.66" height="1.64" fill="#fff"/></g><rect x="370" y="341" width="200" height="4" fill="#353f49"/><rect x="370" y="341" width="38" height="4" fill="#fc6e51"/><path d="M410,343a4,4,0,1,1-4-4A4,4,0,0,1,410,343Z" fill="#fff"/><text transform="translate(555.78 353.68)" font-size="5.76" fill="#fff" font-family="Roboto-Medium, Roboto" letter-spacing="0.04em">-7:18</text><text transform="translate(369.84 353.68)" font-size="5.76" fill="#fff" font-family="Roboto-Medium, Roboto" letter-spacing="0.04em">2:17</text><rect x="390" y="453" width="160" height="4" fill="#353f49"/><rect x="390" y="453" width="110" height="4" fill="#fc6e51"/><path d="M507,455a4,4,0,1,1-4-4A4,4,0,0,1,507,455Z" fill="#fff"/><path d="M565.29,458.33a.56.56,0,0,1,0-.81,3.58,3.58,0,0,0,0-5,.57.57,0,1,1,.81-.81,4.71,4.71,0,0,1,0,6.66.56.56,0,0,1-.81,0Z" fill="#fff"/><path d="M564.05,457.05a.55.55,0,0,1,0-.77,1.8,1.8,0,0,0,0-2.56.56.56,0,0,1,0-.78.55.55,0,0,1,.77,0,2.9,2.9,0,0,1,0,4.11.53.53,0,0,1-.77,0Z" fill="#fff"/><polygon points="558.34 455 562.72 451.5 562.72 458.5 558.34 455" fill="#fff"/><rect x="558.33" y="453.14" width="3.07" height="3.73" fill="#fff"/><polygon points="372.54 455 376.91 451.5 376.91 458.5 372.54 455" fill="#fff"/><rect x="372.52" y="453.14" width="3.07" height="3.73" fill="#fff"/><polygon points="380.46 497.7 378.4 499.78 378.4 490.69 377.76 490.69 377.76 499.78 375.67 497.7 375.21 498.15 378.08 501 380.91 498.15 380.46 497.7" fill="#fff"/><path d="M383.77,489.41a.38.38,0,0,0,0-.1,4.44,4.44,0,0,0-8.4-1.88,2.56,2.56,0,0,0-1.12-.26,2.27,2.27,0,0,0-2.18,2.33c-1.33.18-2.24,1.74-2.24,3.15a3.24,3.24,0,0,0,3.46,3.14h3.19v-.64H373.3a2.62,2.62,0,0,1-2.9-2.53c0-1.22.85-2.56,2-2.56h.32v-.31a1.83,1.83,0,0,1,1.61-2,2,2,0,0,1,1.08.32l.29.19.12-.31a3.86,3.86,0,0,1,3.59-2.38,3.82,3.82,0,0,1,3.86,3.77c0,.1,0,.2,0,.3l0,.27.27,0a2.73,2.73,0,0,1,2.32,2.7,2.59,2.59,0,0,1-2.59,2.55h-3.51v.64h3.51a3.18,3.18,0,0,0,3.14-3.14A3.37,3.37,0,0,0,383.77,489.41Z" fill="#fff"/><path d="M470.21,493.11a.27.27,0,0,0-.42,0l-6.21,7.19a.42.42,0,0,0,.32.7h12.2a.42.42,0,0,0,.32-.7Z" fill="#fff"/><polygon points="460.46 485 460.46 495.95 466.23 495.95 467.19 494.82 461.58 494.82 461.58 486.12 478.42 486.12 478.42 494.82 472.81 494.82 473.77 495.95 479.54 495.95 479.54 485 460.46 485" fill="#fff"/><circle cx="555.01" cy="493" r="1.85" fill="#fff"/><circle cx="561.66" cy="493" r="1.85" fill="#fff"/><circle cx="568.31" cy="493" r="1.85" fill="#fff"/></g></g><g id="mail"><g id="mobile-4" data-name="mobile"><rect x="60" y="60" width="240" height="500" rx="20" ry="20" fill="#474f59"/><path d="M195,535a15,15,0,1,1-15-15A15,15,0,0,1,195,535Z" fill="#656a73"/><rect x="60" y="470" width="240" height="40" fill="#adecf7"/><rect x="60" y="170" width="240" height="300" fill="#76d0de"/><rect x="60" y="130" width="240" height="40" fill="#fc6e51"/><path d="M130,105a5,5,0,1,0,5-5A5,5,0,0,0,130,105Z" fill="#656a73"/><path d="M152.76,110h54.49c1.51,0,2.75-2.24,2.75-5s-1.24-5-2.75-5H152.76c-1.53,0-2.76,2.24-2.76,5S151.23,110,152.76,110Z" fill="#656a73"/><path d="M175,85a5,5,0,1,0,5-5A5,5,0,0,0,175,85Z" fill="#656a73"/><path d="M178,85a2,2,0,1,0,2-2A2,2,0,0,0,178,85Z" fill="#ccd1d9"/></g><g id="content-4" data-name="content"><polygon points="90.52 479.9 90.49 479.9 79.53 479.9 79.5 479.9 75.32 479.9 75.32 484.1 79.5 484.1 79.53 484.1 90.49 484.1 90.52 484.1 94.69 484.1 94.69 479.9 90.52 479.9" fill="#fff"/><polygon points="90.49 486.9 79.53 486.9 79.5 486.9 75.32 486.9 75.32 491.1 79.5 491.1 79.53 491.1 90.49 491.1 90.52 491.1 94.69 491.1 94.69 486.9 90.52 486.9 90.49 486.9" fill="#fff"/><polygon points="90.49 493.9 79.53 493.9 79.5 493.9 75.32 493.9 75.32 498.1 79.5 498.1 79.53 498.1 90.49 498.1 90.52 498.1 94.69 498.1 94.69 493.9 90.52 493.9 90.49 493.9" fill="#fff"/><text transform="translate(148.56 155.09)" font-size="14" fill="#fff" font-family="Roboto-Medium, Roboto" letter-spacing="0.03em">M<tspan x="12.73" y="0" letter-spacing="0.03em">AILB</tspan><tspan x="43.8" y="0" letter-spacing="0.01em">O</tspan><tspan x="53.67" y="0" letter-spacing="0.03em">X</tspan></text><g id="email"><path d="M123.07,236.19a14.48,14.48,0,0,0-28.95,0h0V257h28.95V236.19Z" fill="#e6e5e5"/><polygon points="179.51 241.19 108.91 292.2 108.91 378.18 250.12 378.18 250.12 292.2 179.51 241.19" fill="#fec363"/><path d="M236.84,236.19V343.05H119.66V236.19a14.37,14.37,0,0,0-14.36-14.37H222.47A14.38,14.38,0,0,1,236.84,236.19Z" fill="#fff"/><rect x="132.45" y="242.65" width="42.56" height="42.56" fill="#fc6e51"/><path d="M153.73,249.45c-7.51,0-13.61,6.5-13.61,14.48s6.1,14.48,13.61,14.48a13.09,13.09,0,0,0,8.86-3.5l-2.13-2.33a10,10,0,0,1-6.73,2.66c-5.76,0-10.45-5.07-10.45-11.31s4.69-11.31,10.45-11.31,10.44,5.07,10.44,11.31v2.15a1.77,1.77,0,1,1-3.52,0v-9.32h-3.16v1a6.61,6.61,0,0,0-3.76-1.19,7.33,7.33,0,0,0,0,14.63,6.71,6.71,0,0,0,4.78-2,4.84,4.84,0,0,0,3.9,2,5,5,0,0,0,4.87-4.45h.05v-2.86C167.33,256,161.23,249.45,153.73,249.45Zm0,18.63a4.17,4.17,0,1,1,3.76-4.15A4,4,0,0,1,153.73,268.08Z" fill="#fff"/><rect x="183.13" y="242.65" width="40.58" height="4.55" fill="#ccd1d9"/><rect x="183.13" y="255.32" width="40.58" height="4.55" fill="#ccd1d9"/><rect x="183.13" y="267.98" width="40.58" height="4.56" fill="#ccd1d9"/><rect x="183.13" y="280.65" width="40.58" height="4.55" fill="#ccd1d9"/><rect x="132.45" y="293.32" width="91.26" height="4.56" fill="#ccd1d9"/><rect x="132.45" y="305.99" width="45.63" height="4.56" fill="#ccd1d9"/><polygon points="250.12 292.2 250.12 378.18 179.51 326.28 250.12 292.2" fill="#ffd479"/><polygon points="178.58 326.28 108.91 378.18 108.91 292.2 178.58 326.28" fill="#ffd479"/><polygon points="250.12 378.18 108.91 378.18 179.51 325.34 250.12 378.18" fill="#fec363"/></g><text transform="translate(145.43 431.09)" font-size="14" fill="#fff" font-family="Roboto-Medium, Roboto" letter-spacing="0.03em">New Messages</text><circle cx="126.05" cy="426.5" r="11.5" fill="#fc6e51"/><text transform="translate(120.37 431.97)" font-size="17" fill="#fff" font-family="Roboto-Medium, Roboto" letter-spacing="0.02em">4</text><polygon points="84.34 141.5 74.84 150.91 84.34 160.5 86.16 158.69 78.46 150.91 86.16 143.31 84.34 141.5" fill="#fff"/><polygon points="275.65 141.5 285.15 150.91 275.65 160.5 273.85 158.69 281.54 150.91 273.85 143.31 275.65 141.5" fill="#fff"/></g></g></svg>