<?xml version="1.0" encoding="utf-8"?>
<!-- Generator: Adobe Illustrator 16.0.0, SVG Export Plug-In . SVG Version: 6.00 Build 0)  -->
<!DOCTYPE svg PUBLIC "-//W3C//DTD SVG 1.1//EN" "http://www.w3.org/Graphics/SVG/1.1/DTD/svg11.dtd">
<svg version="1.1" id="Layer_1" xmlns="http://www.w3.org/2000/svg" xmlns:xlink="http://www.w3.org/1999/xlink" x="0px" y="0px"
	 width="335.986px" height="235.19px" viewBox="0 0 335.986 235.19" enable-background="new 0 0 335.986 235.19"
	 xml:space="preserve">
<g>
	<g>
		<g>
			<rect y="0" fill="#9CCB8D" width="335.986" height="235.191"/>
		</g>
	</g>
</g>
<g>
	<circle fill="#4FA0CB" cx="297.16" cy="132.837" r="24.709"/>
</g>
<g>
	<circle fill="#4FA0CB" cx="39.025" cy="43.837" r="24.709"/>
</g>
<g>
	<path fill="#4FA0CB" d="M256.092,114.929c0,49.367-40.019,89.381-89.383,89.381c-49.357,0-89.377-40.014-89.377-89.381
		c0-49.37,40.02-89.382,89.377-89.382C216.073,25.546,256.092,65.559,256.092,114.929z"/>
</g>
<g>
	<circle fill="#4FA0CB" cx="57.635" cy="178.993" r="37.975"/>
</g>
<g>
	<circle fill="#4FA0CB" cx="275.873" cy="54.637" r="37.873"/>
</g>
<g opacity="0.12">
	<g>
		<path fill="#534B62" d="M85.825,105.63v-14c0-1.656-1.344-3-3-3H30.044c-1.656,0-3,1.344-3,3v14c0,1.656,1.344,3,3,3h52.781
			C84.481,108.63,85.825,107.287,85.825,105.63z"/>
	</g>
	<g>
		<path fill="#534B62" d="M86.806,51.883h52.781c1.656,0,3-1.344,3-3v-14c0-1.656-1.344-3-3-3H86.806c-1.656,0-3,1.344-3,3v14
			C83.806,50.54,85.149,51.883,86.806,51.883z"/>
	</g>
	<g>
		<path fill="#534B62" d="M278.801,204.923H226.02c-1.656,0-3,1.344-3,3v14c0,1.656,1.344,3,3,3h52.781c1.656,0,3-1.344,3-3v-14
			C281.801,206.267,280.457,204.923,278.801,204.923z"/>
	</g>
	<g>
		<path fill="#534B62" d="M307.736,181.017l-48.537-26.211c0.403-2.119-0.183-4.303-1.59-5.939
			c1.586-5.799,1.777-12.068,0.247-18.318c-2.085-8.521-7.001-15.607-13.501-20.506h51.594c1.451,0,2.638-1.183,2.638-2.628V50.909
			v-8.025v-5.079c0-1.447-1.187-2.631-2.638-2.631h-70.107c-1.452,0-2.64,1.184-2.64,2.631v5.079v8.025v21.699H103.118
			c-1.314,0-2.391,1.074-2.391,2.391v58.409H43.176c-1.452,0-2.64,1.184-2.64,2.631v5.078v8.025v56.506
			c0,1.445,1.188,2.627,2.64,2.627h70.107c1.451,0,2.638-1.182,2.638-2.627v-35.865h33.432v5.004v8.844h-10.84v6.482h66.168v-6.482
			H194.46v-8.844v-5.004h7.726c8.2,5.404,18.538,7.516,28.831,4.996c6.139-1.502,11.535-4.473,15.902-8.445
			c1.989,0.518,4.08,0.15,5.758-0.98l45.741,31.012c2.755,1.67,8.609,3.125,12.335-3.016
			C314.361,187.399,310.49,182.687,307.736,181.017z"/>
	</g>
	<g>
		<path fill="#534B62" d="M310.886,133.729h-5.835c-0.755,0-1.368-0.584-1.368-1.34v-6.559c0-1.217-0.678-2.398-1.812-2.834
			c-1.896-0.727-3.769,0.482-4.047,2.283l-2.352,8.477v16.395h13.035c1.743,0,3.255-1.189,3.648-2.887l2.378-8.943
			C315.074,135.978,313.294,133.729,310.886,133.729z"/>
	</g>
	<g>
		<path fill="#534B62" d="M288.262,136.495v10.947c0,1.512,1.224,2.709,2.736,2.709h2.737v-16.422h-2.737
			C289.485,133.729,288.262,134.983,288.262,136.495z"/>
	</g>
	<g>
		<polygon fill="#534B62" points="44.979,53.3 51.517,60.792 54.146,58.498 47.688,51.092 56.482,47.667 31.924,35.716 
			39.931,62.101 		"/>
	</g>
</g>
<g>
	<g>
		<g>
			<path fill="#534B62" d="M293.784,30.733c0-1.447-1.187-2.631-2.638-2.631h-70.107c-1.452,0-2.64,1.184-2.64,2.631v5.079h75.385
				V30.733z"/>
		</g>
		<g>
			<path fill="#FFDE3B" d="M218.399,35.812v64.53c0,1.445,1.188,2.628,2.64,2.628h70.107c1.451,0,2.638-1.183,2.638-2.628v-64.53
				H218.399z"/>
		</g>
	</g>
	<g>
		<rect x="218.399" y="35.812" fill="#E6E9EE" width="75.385" height="8.025"/>
	</g>
	<g>
		<g>
			<ellipse fill="#FFEF5A" cx="288.055" cy="32.015" rx="2.145" ry="2.138"/>
		</g>
		<g>
			<ellipse fill="#FFFDFE" cx="281.471" cy="31.958" rx="2.146" ry="2.137"/>
		</g>
		<g>
			<ellipse fill="#90EAFE" cx="274.978" cy="31.958" rx="2.146" ry="2.137"/>
		</g>
	</g>
	<g>
		<polygon fill="#E7E9ED" points="241.785,35.812 221.691,35.812 222.571,31.581 240.906,31.581 		"/>
	</g>
	<g>
		<polygon fill="#CDD5E0" points="261.881,35.812 241.785,35.812 242.666,31.581 261.002,31.581 		"/>
	</g>
	<g>
		<rect x="235.298" y="37.367" fill="#FFFFFF" width="54.902" height="4.917"/>
	</g>
</g>
<g>
	<g>
		<g>
			<path fill="#534B62" d="M111.118,128.966c0-1.447-1.187-2.631-2.638-2.631H38.373c-1.452,0-2.64,1.184-2.64,2.631v5.08h75.385
				V128.966z"/>
		</g>
		<g>
			<path fill="#FFDE3B" d="M35.733,134.046v64.529c0,1.445,1.188,2.629,2.64,2.629h70.107c1.451,0,2.638-1.184,2.638-2.629v-64.529
				H35.733z"/>
		</g>
	</g>
	<g>
		<rect x="35.733" y="134.046" fill="#E6E9EE" width="75.385" height="8.025"/>
	</g>
	<g>
		<g>
			<ellipse fill="#FFEF5A" cx="105.389" cy="130.249" rx="2.145" ry="2.137"/>
		</g>
		<g>
			<ellipse fill="#FFFDFE" cx="98.805" cy="130.192" rx="2.146" ry="2.137"/>
		</g>
		<g>
			<ellipse fill="#90EAFE" cx="92.312" cy="130.192" rx="2.146" ry="2.137"/>
		</g>
	</g>
	<g>
		<polygon fill="#E7E9ED" points="59.119,134.046 39.025,134.046 39.905,129.813 58.24,129.813 		"/>
	</g>
	<g>
		<polygon fill="#CDD5E0" points="79.215,134.046 59.119,134.046 60,129.813 78.336,129.813 		"/>
	</g>
	<g>
		<rect x="52.632" y="135.601" fill="#FFFFFF" width="54.902" height="4.916"/>
	</g>
</g>
<g>
	<g>
		<path fill="#F0F0F0" d="M95.925,143.899v16.42c0,1.316,1.076,2.391,2.391,2.391h137.021c1.316,0,2.391-1.074,2.391-2.391v-16.42
			H95.925z"/>
	</g>
	<g>
		<path fill="#534B62" d="M237.728,67.927c0-1.316-1.074-2.391-2.391-2.391H98.315c-1.314,0-2.391,1.074-2.391,2.391v75.972h141.803
			V67.927z"/>
	</g>
</g>
<g>
	<rect x="144.55" y="162.71" fill="#D6D6D6" width="45.107" height="13.848"/>
</g>
<g>
	<rect x="133.71" y="176.558" fill="#F0F0F0" width="66.168" height="6.484"/>
</g>
<g>
	<rect x="144.55" y="162.71" fill="#A8B6BD" width="45.107" height="5.004"/>
</g>
<g>
	<path fill="#CDCDCD" d="M171.319,153.159c0,2.482-2.014,4.494-4.492,4.494c-2.484,0-4.494-2.012-4.494-4.494
		c0-2.48,2.01-4.494,4.494-4.494C169.306,148.665,171.319,150.679,171.319,153.159z"/>
</g>
<g>
	<rect x="102.704" y="72.357" fill="#9CCB8D" width="128.271" height="64.533"/>
</g>
<g>
	<rect x="111.723" y="82.97" fill="#F2F2F2" width="110.143" height="49.867"/>
</g>
<g>
	<rect x="111.723" y="76.411" fill="#FFDE3B" width="110.143" height="6.56"/>
</g>
<g>
	<circle fill="#4FA0CB" cx="208.874" cy="79.949" r="1.647"/>
</g>
<g>
	<circle fill="#4FA0CB" cx="213.055" cy="79.949" r="1.647"/>
</g>
<g>
	<circle fill="#4FA0CB" cx="217.284" cy="79.949" r="1.647"/>
</g>
<g>
	<g>
		<rect x="119.925" y="89.54" fill="#4FA0CB" width="32.749" height="9.979"/>
	</g>
	<g>
		<rect x="152.674" y="89.54" fill="#9CCB8D" width="10.525" height="9.979"/>
	</g>
</g>
<g>
	<g>
		<rect x="119.925" y="103.18" fill="#4FA0CB" width="25.034" height="9.882"/>
	</g>
	<g>
		<rect x="144.959" y="103.18" fill="#9CCB8D" width="5.768" height="9.882"/>
	</g>
</g>
<g>
	<g>
		<rect x="119.925" y="116.421" fill="#4FA0CB" width="45.323" height="9.98"/>
	</g>
	<g>
		<rect x="165.248" y="116.421" fill="#9CCB8D" width="12.089" height="9.98"/>
	</g>
</g>
<g>
	<polygon fill="#FFFFFF" points="20.116,120.882 21.392,123.983 24.493,125.259 21.392,126.538 20.116,129.636 18.839,126.538 
		15.739,125.259 18.839,123.983 	"/>
</g>
<g>
	<polygon fill="#FFFFFF" points="208.874,13.151 210.149,16.251 213.251,17.528 210.149,18.806 208.874,21.905 207.597,18.806 
		204.497,17.528 207.597,16.251 	"/>
</g>
<g>
	<polygon fill="#FFFFFF" points="173.014,43.896 174.289,46.997 177.391,48.273 174.289,49.551 173.014,52.65 171.736,49.551 
		168.637,48.273 171.736,46.997 	"/>
</g>
<g>
	<polygon fill="#FFFFFF" points="128.956,207.419 130.231,210.521 133.333,211.796 130.231,213.075 128.956,216.173 
		127.679,213.075 124.579,211.796 127.679,210.521 	"/>
</g>
<g>
	<polygon fill="#FFFFFF" points="251.833,178.665 253.108,181.765 256.21,183.042 253.108,184.319 251.833,187.419 250.556,184.319 
		247.456,183.042 250.556,181.765 	"/>
</g>
<g>
	<polygon fill="#FFFFFF" points="312.214,207.419 313.489,210.521 316.591,211.796 313.489,213.075 312.214,216.173 
		310.937,213.075 307.837,211.796 310.937,210.521 	"/>
</g>
<g>
	<polygon fill="#FFFFFF" points="316.591,84.253 317.866,87.354 320.968,88.63 317.866,89.909 316.591,93.007 315.313,89.909 
		312.214,88.63 315.313,87.354 	"/>
</g>
<g>
	<polygon fill="#FFFFFF" points="71.397,61.01 72.673,64.111 75.774,65.387 72.673,66.666 71.397,69.764 70.12,66.666 
		67.021,65.387 70.12,64.111 	"/>
</g>
<g>
	<path fill="#FFFFFF" d="M82.022,99.559c0,1.656-1.344,3-3,3H26.241c-1.656,0-3-1.344-3-3v-14c0-1.656,1.344-3,3-3h52.781
		c1.656,0,3,1.344,3,3V99.559z"/>
</g>
<g>
	<path fill="#606060" d="M40.406,88.6c0,0,0.647-0.108,1.502-0.108S43.41,88.6,43.41,88.6v8.494c0,0-0.634,0.109-1.488,0.109
		c-0.923,0-1.516-0.109-1.516-0.109v-3.339h-2.122v3.339c0,0-0.661,0.109-1.502,0.109c-0.909,0-1.502-0.109-1.502-0.109V88.6
		c0,0,0.634-0.108,1.488-0.108c0.868,0,1.516,0.108,1.516,0.108v3.122h2.122V88.6z"/>
	<path fill="#606060" d="M51.983,88.492c0,0,0.138,0.436,0.138,1.077c0,0.616-0.138,1.076-0.138,1.076h-2.301v6.449
		c0,0-0.662,0.109-1.502,0.109c-0.91,0-1.502-0.109-1.502-0.109v-6.449h-2.37c0,0-0.138-0.436-0.138-1.053
		c0-0.678,0.138-1.101,0.138-1.101H51.983z"/>
	<path fill="#606060" d="M60.143,88.492c0,0,0.138,0.436,0.138,1.077c0,0.616-0.138,1.076-0.138,1.076h-2.301v6.449
		c0,0-0.662,0.109-1.502,0.109c-0.91,0-1.502-0.109-1.502-0.109v-6.449h-2.37c0,0-0.138-0.436-0.138-1.053
		c0-0.678,0.138-1.101,0.138-1.101H60.143z"/>
	<path fill="#606060" d="M64.032,97.094c0,0-0.579,0.109-1.502,0.109s-1.502-0.109-1.502-0.109v-8.603h4.037
		c2.273,0,3.555,0.956,3.555,2.88s-1.281,2.892-3.555,2.892h-1.033V97.094z M64.611,92.328c0.564,0,0.923-0.291,0.923-0.956
		c0-0.678-0.358-0.944-0.923-0.944h-0.579v1.9H64.611z"/>
</g>
<g>
	<path fill="#FFFFFF" d="M138.784,42.812c0,1.656-1.344,3-3,3H83.003c-1.656,0-3-1.344-3-3v-14c0-1.656,1.344-3,3-3h52.781
		c1.656,0,3,1.344,3,3V42.812z"/>
</g>
<g>
	<path fill="#606060" d="M96.683,36.342c-0.234-1.331-0.234-2.396-0.234-2.396h-0.069c0,0,0.015,1.089-0.233,2.396l-0.758,4.005
		c-0.414,0.061-1.144,0.109-1.984,0.109s-1.599-0.049-1.998-0.109l-1.942-8.494c0,0,0.619-0.108,1.543-0.108
		c0.868,0,1.351,0.108,1.351,0.108l0.867,4.211c0.234,1.162,0.304,2.215,0.304,2.215h0.055c0,0,0.027-1.041,0.248-2.202l0.785-4.224
		c0,0,0.606-0.108,1.847-0.108c1.199,0,1.874,0.108,1.874,0.108l0.744,4.211c0.221,1.234,0.221,2.215,0.221,2.215h0.055
		c0,0,0.083-0.98,0.331-2.202l0.882-4.224c0,0,0.454-0.108,1.336-0.108c0.813,0,1.378,0.108,1.378,0.108l-1.929,8.494
		c0,0-0.647,0.109-1.942,0.109c-1.393,0-2.026-0.109-2.026-0.109L96.683,36.342z"/>
	<path fill="#606060" d="M110.646,36.342c-0.234-1.331-0.234-2.396-0.234-2.396h-0.069c0,0,0.015,1.089-0.233,2.396l-0.758,4.005
		c-0.414,0.061-1.144,0.109-1.984,0.109s-1.599-0.049-1.998-0.109l-1.942-8.494c0,0,0.619-0.108,1.543-0.108
		c0.868,0,1.351,0.108,1.351,0.108l0.867,4.211c0.234,1.162,0.304,2.215,0.304,2.215h0.055c0,0,0.027-1.041,0.248-2.202l0.785-4.224
		c0,0,0.606-0.108,1.847-0.108c1.199,0,1.874,0.108,1.874,0.108l0.744,4.211c0.221,1.234,0.221,2.215,0.221,2.215h0.055
		c0,0,0.083-0.98,0.331-2.202l0.882-4.224c0,0,0.454-0.108,1.336-0.108c0.813,0,1.378,0.108,1.378,0.108l-1.929,8.494
		c0,0-0.647,0.109-1.942,0.109c-1.393,0-2.026-0.109-2.026-0.109L110.646,36.342z"/>
	<path fill="#606060" d="M124.609,36.342c-0.234-1.331-0.234-2.396-0.234-2.396h-0.069c0,0,0.015,1.089-0.233,2.396l-0.758,4.005
		c-0.414,0.061-1.144,0.109-1.984,0.109s-1.599-0.049-1.998-0.109l-1.942-8.494c0,0,0.619-0.108,1.543-0.108
		c0.868,0,1.351,0.108,1.351,0.108l0.867,4.211c0.234,1.162,0.304,2.215,0.304,2.215h0.055c0,0,0.027-1.041,0.248-2.202l0.785-4.224
		c0,0,0.606-0.108,1.847-0.108c1.199,0,1.874,0.108,1.874,0.108l0.744,4.211c0.221,1.234,0.221,2.215,0.221,2.215h0.055
		c0,0,0.083-0.98,0.331-2.202l0.882-4.224c0,0,0.454-0.108,1.336-0.108c0.813,0,1.378,0.108,1.378,0.108l-1.929,8.494
		c0,0-0.647,0.109-1.942,0.109c-1.393,0-2.026-0.109-2.026-0.109L124.609,36.342z"/>
</g>
<g>
	<path fill="#FFFFFF" d="M276.998,215.851c0,1.656-1.344,3-3,3h-52.781c-1.656,0-3-1.344-3-3v-14c0-1.656,1.344-3,3-3h52.781
		c1.656,0,3,1.344,3,3V215.851z"/>
</g>
<g>
	<path fill="#606060" d="M236.343,210.494c0,2.033-1.626,3.184-4.078,3.184c-2.453,0-4.078-1.15-4.078-3.184v-5.602
		c0,0,0.564-0.109,1.487-0.109c0.938,0,1.516,0.109,1.516,0.109v5.541c0,0.715,0.358,1.029,1.103,1.029s1.089-0.314,1.089-1.029
		v-5.541c0,0,0.537-0.109,1.46-0.109c0.924,0,1.502,0.109,1.502,0.109V210.494z"/>
	<path fill="#606060" d="M241.68,204.783c2.549,0,3.555,1.137,3.555,2.771c0,1.053-0.413,1.9-1.378,2.359l1.971,3.473
		c0,0-0.634,0.109-1.626,0.109c-1.048,0-1.64-0.109-1.64-0.109l-1.599-3.061h-0.386v3.061c0,0-0.634,0.109-1.488,0.109
		c-0.923,0-1.516-0.109-1.516-0.109v-8.604H241.68z M240.577,208.414h0.647c0.62,0,0.896-0.303,0.896-0.859
		s-0.275-0.859-0.896-0.859h-0.647V208.414z"/>
	<path fill="#606060" d="M246.436,204.893c0,0,0.634-0.109,1.488-0.109c0.868,0,1.516,0.109,1.516,0.109v6.594h3.679
		c0.097,0.303,0.138,0.654,0.138,1.006c0,0.338-0.055,0.689-0.138,1.004h-6.683V204.893z"/>
	<path fill="#606060" d="M256.69,209.574c0,0-0.51,0.098-1.42,0.098c-0.909,0-1.419-0.098-1.419-0.098v-2.346
		c0,0,0.496-0.098,1.419-0.098c0.91,0,1.42,0.098,1.42,0.098V209.574z M256.69,213.398c0,0-0.51,0.098-1.42,0.098
		c-0.909,0-1.419-0.098-1.419-0.098v-2.348c0,0,0.496-0.096,1.419-0.096c0.91,0,1.42,0.096,1.42,0.096V213.398z"/>
	<path fill="#606060" d="M261.982,204.529c0,0,0.647-0.109,1.461-0.109c0.84,0,1.487,0.109,1.487,0.109l-4.588,9.426
		c0,0-0.647,0.109-1.461,0.109c-0.84,0-1.487-0.109-1.487-0.109L261.982,204.529z"/>
	<path fill="#606060" d="M266.793,204.529c0,0,0.647-0.109,1.461-0.109c0.84,0,1.487,0.109,1.487,0.109l-4.588,9.426
		c0,0-0.647,0.109-1.461,0.109c-0.84,0-1.487-0.109-1.487-0.109L266.793,204.529z"/>
</g>
<g>
	<path fill="#534B62" d="M302.934,173.944l-48.537-26.211c0.403-2.119-0.183-4.301-1.59-5.939
		c1.586-5.799,1.777-12.066,0.247-18.316c-4.802-19.629-24.607-31.647-44.234-26.842c-19.627,4.803-31.641,24.604-26.841,44.231
		c4.805,19.631,24.607,31.645,44.235,26.842c6.139-1.502,11.535-4.473,15.902-8.445c1.989,0.516,4.08,0.15,5.758-0.98l45.741,31.012
		c2.755,1.67,8.609,3.123,12.335-3.018C309.559,180.329,305.688,175.616,302.934,173.944z M225.005,162.896
		c-16.982,4.152-34.119-6.242-38.273-23.223c-4.155-16.98,6.242-34.115,23.226-38.271c16.981-4.155,34.113,6.244,38.271,23.222
		C252.38,141.603,241.982,158.741,225.005,162.896z"/>
</g>
<g>
	<g>
		<path fill="#9CCB8D" d="M209.957,101.402c-16.983,4.156-27.381,21.291-23.226,38.271c4.154,16.98,21.291,27.375,38.273,23.223
			c16.978-4.154,27.375-21.293,23.223-38.271C244.07,107.646,226.938,97.247,209.957,101.402z"/>
	</g>
	<g>
		<path fill="#FFFFFF" d="M207.282,102.288c-15.32,5.209-24.306,21.622-20.45,37.358c1.999,8.189,7.073,15.105,14.276,19.477
			c7.205,4.375,15.685,5.676,23.87,3.672c0.907-0.219,1.815-0.48,2.692-0.779l0.004-0.002c15.322-5.211,24.306-21.621,20.454-37.361
			c-2.003-8.188-7.073-15.105-14.278-19.478c-7.206-4.371-15.682-5.676-23.869-3.669
			C209.07,101.722,208.163,101.987,207.282,102.288z"/>
	</g>
</g>
<g opacity="0.3">
	<rect x="45.931" y="151.392" fill="#534B62" width="45.321" height="7.16"/>
</g>
<g opacity="0.3">
	<rect x="45.931" y="165.706" fill="#534B62" width="45.321" height="3.576"/>
</g>
<g opacity="0.3">
	<rect x="45.931" y="176.437" fill="#534B62" width="52.874" height="3.578"/>
</g>
<g opacity="0.3">
	<rect x="45.931" y="187.167" fill="#534B62" width="30.215" height="3.578"/>
</g>
<g opacity="0.3">
	<rect x="228.597" y="62.812" fill="#534B62" width="55.02" height="7.159"/>
</g>
<g opacity="0.3">
	<rect x="228.597" y="52.847" fill="#534B62" width="38.021" height="3.577"/>
</g>
<g opacity="0.3">
	<rect x="231.738" y="77.428" fill="#534B62" width="41.216" height="3.578"/>
</g>
<g opacity="0.3">
	<rect x="231.738" y="88.16" fill="#534B62" width="51.878" height="3.577"/>
</g>
<g>
	<path fill="#FFFFFF" d="M311.73,132.249l-2.378,8.945c-0.394,1.695-1.905,2.887-3.648,2.887h-13.035v-16.395l2.352-8.477
		c0.278-1.803,2.15-3.012,4.047-2.283c1.135,0.436,1.812,1.617,1.812,2.832v6.561c0,0.756,0.613,1.34,1.368,1.34h5.835
		C310.491,127.659,312.271,129.905,311.73,132.249 M284.459,130.423v10.947c0,1.514,1.224,2.711,2.736,2.711h2.737v-16.422h-2.737
		C285.683,127.659,284.459,128.913,284.459,130.423"/>
</g>
<g>
	<g>
		<polygon fill="#FAFBF3" points="28.121,30.645 36.128,57.03 41.176,48.229 47.714,55.721 50.343,53.426 43.885,46.021 
			52.68,42.596 		"/>
	</g>
</g>
<g>
	<g>
		<g>
			<g>
				<path fill="#FFDE3B" d="M216.671,109.413c-1.076,0-1.984-0.827-2.078-1.916c-0.092-1.148,0.76-2.154,1.91-2.249
					c0.799-0.066,1.604-0.099,2.418-0.099c1.151,0,2.085,0.936,2.085,2.086c0,1.152-0.934,2.085-2.085,2.085
					c-0.698,0-1.394,0.027-2.077,0.085C216.786,109.409,216.727,109.413,216.671,109.413z"/>
			</g>
		</g>
	</g>
	<g>
		<g>
			<g>
				<path fill="#FFDE3B" d="M191.924,136.319c-1.151,0-2.085-0.934-2.085-2.088c0-11.332,6.657-21.714,16.964-26.445
					c1.044-0.48,2.282-0.022,2.766,1.027c0.479,1.046,0.021,2.282-1.027,2.763c-8.827,4.053-14.53,12.946-14.53,22.655
					C194.011,135.386,193.076,136.319,191.924,136.319z"/>
			</g>
		</g>
	</g>
</g>
<g>
	<path fill="#FFDE3B" d="M235.298,132.319c0,9.885-8.012,17.898-17.896,17.898c-9.889,0-17.9-8.014-17.9-17.898
		s8.012-17.9,17.9-17.9C227.286,114.419,235.298,122.435,235.298,132.319z"/>
</g>
<g>
	<polygon fill="#FFFFFF" points="211.572,141.688 227.638,132.323 211.572,122.948 	"/>
</g>
</svg>
